<svg viewBox="0 0 529.04 136.02" xmlns="http://www.w3.org/2000/svg" xmlns:xlink="http://www.w3.org/1999/xlink"><linearGradient id="a" gradientTransform="matrix(-.54 .68 -.81 -.64 724.47 162.75)" gradientUnits="userSpaceOnUse" x1="410.1" x2="497.28" y1="520.93" y2="520.93"><stop offset=".51" stop-color="#da5a6b"/><stop offset="1" stop-color="#ff6c85"/></linearGradient><linearGradient id="b" gradientTransform="matrix(-.54 .68 -.81 -.64 724.47 162.75)" gradientUnits="userSpaceOnUse" x1="355.55" x2="441.67" y1="461.22" y2="461.22"><stop offset=".59" stop-color="#da5a6b"/><stop offset="1" stop-color="#ff6c85"/></linearGradient><clipPath id="c" transform="translate(-11.83 -70.19)"><path d="m178.64 205.69c-.53-5.19-21.72-7.23-24.06-64.33-2.7-65.67-64.34-70.48-64.34-70.48s21.72 8.9 25.65 68.82c4.23 64.47 63 68.46 62.75 65.99z"/></clipPath><g transform="translate(-11.83 -70.19)"><path d="m213.78 152.8h-41.22c.75 10.31 8.62 17.15 19.39 17.15a19.43 19.43 0 0 0 15.05-6.47l3.75 4.31c-4.4 5.25-11.24 8.06-19 8.06-15.37 0-25.86-10.49-25.86-25.11s10.21-25 24.08-25 23.89 10.21 23.89 25c.02.56-.08 1.26-.08 2.06zm-41.22-5h34.95c-.84-9.65-7.87-16.4-17.52-16.4s-16.59 6.78-17.43 16.43z"/><path d="m253.42 172.38c-2.62 2.34-6.56 3.47-10.4 3.47-9.28 0-14.43-5.25-14.43-14.33v-29.8h-8.81v-5.62h8.81v-10.78h6.65v10.77h15v5.62h-15v29.42c0 5.81 3 9 8.53 9a11 11 0 0 0 7.31-2.53z"/><path d="m280.22 105.39c3.65 0 7.4 1 9.84 3.09l-2.25 5a11.27 11.27 0 0 0 -7.31-2.48c-5.71 0-8.71 3.19-8.71 9.28v5.81h15.21v5.62h-15v43.66h-6.65v-43.65h-8.81v-5.62h8.81v-6.1c-.03-8.8 5.22-14.61 14.87-14.61zm22.39.47v69.52h-6.61v-69.52z"/><path d="m316.2 150.73c0-14.62 10.68-25 25.11-25s25 10.4 25 25-10.59 25.11-25 25.11-25.11-10.49-25.11-25.11zm43.38 0c0-11.52-7.78-19.21-18.27-19.21s-18.36 7.68-18.36 19.21 7.87 19.21 18.36 19.21 18.26-7.68 18.26-19.21z"/><path d="m450.83 126.09-18.64 49.28h-6.28l-15.55-40.37-15.56 40.38h-6.28l-18.52-49.29h6.37l15.44 41.91 15.83-41.88h5.72l15.73 41.88 15.65-41.88z"/><path d="m502.37 152.8h-41.23c.75 10.31 8.62 17.15 19.39 17.15a19.43 19.43 0 0 0 15.08-6.46l3.75 4.31c-4.4 5.25-11.24 8.06-19 8.06-15.37 0-25.86-10.49-25.86-25.11s10.21-25 24.08-25 23.89 10.21 23.89 25c-.01.55-.1 1.25-.1 2.05zm-41.22-5h34.95c-.84-9.65-7.87-16.4-17.52-16.4s-16.58 6.78-17.44 16.43z"/><path d="m540.88 125.72v6.46c-.56 0-1.12-.09-1.59-.09-10.31 0-16.58 6.56-16.58 18.18v25.11h-6.71v-49.29h6.37v9.65c3.14-6.55 9.42-10.02 18.51-10.02z"/><path d="m152.7 141s.18-61.15-64.34-70.48c-37.13-5.38-48.36 57.36-48.36 57.36s33.59 27.86 34.73 15.68c3.64-38.93 27.17-40.33 37.32-27.48 7.41 9.35 40.65 24.92 40.65 24.92z" fill="#7f3948"/><path d="m99.65 204.86c-.79-4-21.56-7.17-23.89-63.86-2.67-65.2-62.24-73.72-63.86-70-1.46 3.38 21.56 8.84 25.46 68.32 4.2 64.02 63.06 69.38 62.29 65.54z" fill="url(#a)"/><path d="m178.64 205.69c-.53-5.19-21.72-7.23-24.06-64.33-2.7-65.67-64.34-70.48-64.34-70.48s21.72 8.9 25.65 68.82c4.23 64.47 63 68.46 62.75 65.99z" fill="url(#b)"/></g><g style="clip-path:url(#c);fill:none;stroke:#fff;stroke-linecap:round;stroke-miterlimit:10;stroke-width:2.45"><path d="m127.92 51.44-8.38-46.3"/><circle cx="140.65" cy="125.15" r="3.41" transform="matrix(.98 -.18 .18 .98 -31.83 -43.2)"/><path d="m130.64 12.87 2.64 14.61"/><circle cx="145.93" cy="102.44" r="3.41" transform="matrix(.98410275 -.17760004 .17760004 .98410275 -27.71 -42.63)"/><path d="m124.06 22.86 8.12-1.47"/><path d="m111.48 6.59 2.71 15.02"/><circle cx="126" cy="95.67" r="3.41" transform="matrix(.98410275 -.17760004 .17760004 .98410275 -26.83 -46.28)"/><circle cx="130" cy="120.13" r="3.41" transform="matrix(.98410275 -.17760004 .17760004 .98410275 -31.11 -45.18)"/><path d="m123.48 31.46-8.76 1.58"/><path d="m114.72 33.04 2.35 13.01"/><path d="m100.75 5.5 10.67 59.13"/><circle cx="123.98" cy="138.83" r="3.41" transform="matrix(.98410275 -.17760004 .17760004 .98410275 -34.53 -45.95)"/></g></svg>