<svg id="Layer_1" data-name="Layer 1" xmlns="http://www.w3.org/2000/svg" xmlns:xlink="http://www.w3.org/1999/xlink" viewBox="0 0 282.02 229.97"><defs><style>.cls-1,.cls-6{fill:none;}.cls-2{fill:#7f3948;}.cls-3{fill:url(#linear-gradient);}.cls-4{fill:url(#linear-gradient-2);}.cls-5{clip-path:url(#clip-path);}.cls-6{stroke:#fff;stroke-linecap:round;stroke-miterlimit:10;stroke-width:4.15px;}</style><linearGradient id="linear-gradient" x1="143.87" y1="394.3" x2="291.25" y2="394.3" gradientTransform="matrix(-0.54, 0.68, -0.81, -0.64, 514.53, 255.84)" gradientUnits="userSpaceOnUse"><stop offset="0.51" stop-color="#da5a6b"/><stop offset="1" stop-color="#ff6c85"/></linearGradient><linearGradient id="linear-gradient-2" x1="51.64" y1="293.35" x2="197.24" y2="293.35" gradientTransform="matrix(-0.54, 0.68, -0.81, -0.64, 514.53, 255.84)" gradientUnits="userSpaceOnUse"><stop offset="0.59" stop-color="#da5a6b"/><stop offset="1" stop-color="#ff6c85"/></linearGradient><clipPath id="clip-path" transform="translate(-2.56 -36.23)"><path class="cls-1" d="M284.57,265.33c-.89-8.78-36.72-12.22-40.68-108.77C239.33,45.53,135.12,37.4,135.12,37.4s36.72,15.05,43.36,116.36C185.63,262.74,285,269.5,284.57,265.33Z"/></clipPath></defs><title>onlyN</title><path class="cls-2" d="M240.73,155.94S241,52.56,132,36.78c-62.79-9.08-81.73,97-81.73,97s56.79,47.11,58.72,26.52c6.16-65.82,45.93-68.19,63.1-46.46C184.53,129.63,240.73,155.94,240.73,155.94Z" transform="translate(-2.56 -36.23)"/><path class="cls-3" d="M151,263.91c-1.34-6.69-36.45-12.13-40.38-108C106.12,45.72,5.41,31.32,2.67,37.65.2,43.36,39.12,52.6,45.72,153.16,52.81,261.34,152.34,270.42,151,263.91Z" transform="translate(-2.56 -36.23)"/><path class="cls-4" d="M284.57,265.33c-.89-8.78-36.72-12.22-40.68-108.77C239.33,45.53,135.12,37.4,135.12,37.4s36.72,15.05,43.36,116.36C185.63,262.74,285,269.5,284.57,265.33Z" transform="translate(-2.56 -36.23)"/><g class="cls-5"><line class="cls-6" x1="216.26" y1="86.96" x2="202.11" y2="8.69"/><circle class="cls-6" cx="220.35" cy="129.15" r="5.77" transform="translate(-22 4.98) rotate(-10.23)"/><line class="cls-6" x1="220.86" y1="21.76" x2="225.32" y2="46.47"/><circle class="cls-6" cx="229.28" cy="90.76" r="5.77" transform="translate(-15.03 5.95) rotate(-10.23)"/><line class="cls-6" x1="209.74" y1="38.65" x2="223.47" y2="36.17"/><line class="cls-6" x1="188.47" y1="11.15" x2="193.06" y2="36.54"/><circle class="cls-6" cx="195.57" cy="79.32" r="5.77" transform="translate(-13.54 -0.22) rotate(-10.23)"/><circle class="cls-6" cx="202.35" cy="120.67" r="5.77" transform="translate(-20.78 1.64) rotate(-10.23)"/><line class="cls-6" x1="208.77" y1="53.19" x2="193.95" y2="55.87"/><line class="cls-6" x1="193.95" y1="55.87" x2="197.92" y2="77.86"/><line class="cls-6" x1="170.33" y1="9.29" x2="188.38" y2="109.27"/><circle class="cls-6" cx="192.16" cy="152.28" r="5.77" transform="translate(-26.56 0.34) rotate(-10.23)"/></g></svg>